<?xml version="1.0" encoding="UTF-8"?>
<svg version="1.1" xmlns="http://www.w3.org/2000/svg" width="1170" height="1170">
<path d="M0 0 C1.3819487 -0.00134902 2.76389703 -0.00313425 4.14584467 -0.00531223 C7.93172325 -0.01001857 11.71757763 -0.00854828 15.50345736 -0.00603446 C19.62679643 -0.00439601 23.75013043 -0.00854669 27.87346786 -0.01194364 C35.09656244 -0.0170904 42.31965032 -0.0185161 49.54274654 -0.01748753 C60.28415041 -0.01596169 71.02554688 -0.02012638 81.7669493 -0.02536215 C102.06875922 -0.03503159 122.3705666 -0.03784625 142.67237855 -0.03841921 C158.35178833 -0.03887883 174.03119712 -0.04093755 189.71060658 -0.04411983 C194.22461174 -0.04501739 198.7386169 -0.0459072 203.25262207 -0.04679471 C204.37483411 -0.04701576 205.49704614 -0.04723681 206.65326461 -0.04746456 C238.21818634 -0.05361856 269.78310773 -0.05756514 301.34803009 -0.05712128 C302.53803535 -0.0571057 303.72804061 -0.05709012 304.95410664 -0.05707407 C310.98548294 -0.05699096 317.01685924 -0.05689192 323.04823554 -0.05678936 C324.24607762 -0.05676942 325.4439197 -0.05674947 326.67806003 -0.05672892 C329.10038902 -0.05668848 331.522718 -0.05664669 333.94504699 -0.05660353 C371.62841489 -0.05599084 409.31177379 -0.06349622 446.99513912 -0.07717609 C489.33755097 -0.09254099 531.6799569 -0.10114207 574.02237171 -0.10021287 C578.53857736 -0.10013824 583.05478301 -0.10008953 587.57098866 -0.10005856 C589.23897991 -0.10004107 589.23897991 -0.10004107 590.94066796 -0.10002324 C608.82557151 -0.09999248 626.71046723 -0.10637487 644.59536846 -0.11499082 C662.57479078 -0.12347307 680.55420168 -0.12445277 698.53362489 -0.1178815 C709.21002952 -0.11418964 719.8863994 -0.11600734 730.56280033 -0.12582384 C737.70197684 -0.13183245 744.84112824 -0.13051857 751.98030361 -0.12335334 C756.04293745 -0.11947929 760.10550416 -0.11867459 764.16813321 -0.12681069 C783.37882143 -0.16277817 802.30263531 -0.13280843 821.10915279 4.37863445 C822.02793209 4.59479412 822.94671139 4.81095379 823.89333248 5.03366375 C854.91651503 12.55354165 884.29654859 26.8649614 907.66384029 48.8356657 C909.76165583 50.80278666 911.90396067 52.66002241 914.10915279 54.50363445 C949.70659811 85.67858656 969.5245822 134.82586832 973.10915279 181.12863445 C973.58600452 191.4367522 973.5223752 201.75855771 973.49455546 212.07519136 C973.48683816 216.19571126 973.49676682 220.31619904 973.50428545 224.43671417 C973.51504757 231.63488097 973.51483718 238.83298008 973.50714397 246.03114986 C973.4957348 256.73558568 973.50162958 267.43996505 973.5107689 278.14440057 C973.52652118 297.26926317 973.52521491 316.39409561 973.51653216 335.51896104 C973.50897126 352.255931 973.50702201 368.99288994 973.51060009 385.72986126 C973.51082925 386.84212402 973.5110584 387.95438678 973.5112945 389.10035447 C973.51222859 393.61593268 973.5131838 398.13151088 973.51417379 402.64708908 C973.52334096 444.96544351 973.51504602 487.28377878 973.4988831 529.60213025 C973.48464738 567.16012889 973.48592131 604.71809701 973.50026608 642.27609539 C973.51634659 684.51941394 973.5226907 726.76271557 973.51342928 769.00603676 C973.5124672 773.51316038 973.51152868 778.02028401 973.51060009 782.52740765 C973.51024424 784.19193534 973.51024424 784.19193534 973.5098812 785.89008985 C973.50647565 802.61231974 973.5104468 819.33453737 973.51803875 836.05676556 C973.52663246 855.07978001 973.52443813 874.10275971 973.50819652 893.12576985 C973.49941648 903.7587785 973.49877077 914.39171179 973.51013504 925.02471841 C973.51689999 932.14217139 973.51260782 939.25956441 973.49962073 946.37700855 C973.49253798 950.42210364 973.48993073 954.46704992 973.50083868 958.51213992 C973.63533231 1012.50013597 961.12664167 1063.87919906 923.10915279 1104.12863445 C922.02158938 1105.41674148 920.93813366 1106.70832979 919.85915279 1108.00363445 C888.18936595 1144.10428597 839.2349974 1164.4803445 792.10915279 1168.12863445 C781.80103504 1168.60548618 771.47922954 1168.54185686 761.16259588 1168.51403712 C757.04207599 1168.50631982 752.92158821 1168.51624848 748.80107307 1168.52376711 C741.60290628 1168.53452923 734.40480717 1168.53431884 727.20663738 1168.52662563 C716.50220156 1168.51521645 705.79782219 1168.52111124 695.09338668 1168.53025055 C675.96852408 1168.54600283 656.84369164 1168.54469657 637.7188262 1168.53601382 C620.98185624 1168.52845292 604.24489731 1168.52650366 587.50792599 1168.53008175 C585.83953185 1168.53042548 585.83953185 1168.53042548 584.13743278 1168.53077616 C579.62185457 1168.53171025 575.10627636 1168.53266546 570.59069816 1168.53365545 C528.27234374 1168.54282262 485.95400847 1168.53452767 443.635657 1168.51836476 C406.07765835 1168.50412904 368.51969023 1168.50540297 330.96169186 1168.51974773 C288.71837331 1168.53582825 246.47507167 1168.54217236 204.23175049 1168.53291094 C199.72462686 1168.53194886 195.21750323 1168.53101033 190.7103796 1168.53008175 C189.60069447 1168.52984452 188.49100935 1168.52960728 187.3476974 1168.52936286 C170.62546751 1168.52595731 153.90324988 1168.52992846 137.18102169 1168.53752041 C118.15800724 1168.54611411 99.13502754 1168.54391979 80.11201739 1168.52767818 C69.47900875 1168.51889813 58.84607546 1168.51825243 48.21306884 1168.5296167 C41.09561586 1168.53638165 33.97822284 1168.53208948 26.86077869 1168.51910239 C22.8156836 1168.51201964 18.77073733 1168.50941239 14.72564733 1168.52032034 C-39.26234872 1168.65481397 -90.64141182 1156.14612333 -130.89084721 1118.12863445 C-132.17895423 1117.04107104 -133.47054254 1115.95761532 -134.76584721 1114.87863445 C-170.86649873 1083.20884761 -191.24255725 1034.25447906 -194.89084721 987.12863445 C-195.36769893 976.8205167 -195.30406961 966.49871119 -195.27624987 956.18207754 C-195.26853258 952.06155765 -195.27846123 947.94106987 -195.28597987 943.82055473 C-195.29674198 936.62238794 -195.29653159 929.42428882 -195.28883839 922.22611904 C-195.27742921 911.52168322 -195.28332399 900.81730385 -195.29246331 890.11286834 C-195.30821559 870.98800573 -195.30690933 851.8631733 -195.29822657 832.73830786 C-195.29066568 816.0013379 -195.28871642 799.26437897 -195.2922945 782.52740765 C-195.29252366 781.41514489 -195.29275281 780.30288213 -195.29298891 779.15691444 C-195.293923 774.64133623 -195.29487821 770.12575802 -195.2958682 765.61017982 C-195.30503537 723.2918254 -195.29674043 680.97349013 -195.28057751 638.65513866 C-195.2663418 601.09714001 -195.26761572 563.53917189 -195.28196049 525.98117352 C-195.298041 483.73785497 -195.30438512 441.49455333 -195.2951237 399.25123215 C-195.29416161 394.74410852 -195.29322309 390.23698489 -195.2922945 385.72986126 C-195.29205727 384.62017613 -195.29182004 383.51049101 -195.29157562 382.36717906 C-195.28817006 365.64494917 -195.29214121 348.92273154 -195.29973316 332.20050335 C-195.30832687 313.1774889 -195.30613254 294.1545092 -195.28989093 275.13149905 C-195.28111089 264.49849041 -195.28046519 253.86555712 -195.29182945 243.2325505 C-195.2985944 236.11509752 -195.29430223 228.9977045 -195.28131515 221.88026035 C-195.27423239 217.83516526 -195.27162514 213.79021899 -195.28253309 209.74512899 C-195.41702672 155.75713294 -182.90833609 104.37806984 -144.89084721 64.12863445 C-143.80328379 62.84052743 -142.71982808 61.54893912 -141.64084721 60.25363445 C-106.84571173 20.59037222 -51.84832605 -0.0846384 0 0 Z " fill="#00A437" transform="translate(195.89084720611572,0.8713655471801758)"/>
<path d="M0 0 C0.83772949 0.1757959 1.67545898 0.3515918 2.53857422 0.53271484 C49.46785386 10.5308998 95.80941356 31.54444792 135 59 C136.61648438 60.11375 136.61648438 60.11375 138.265625 61.25 C146.79790069 67.18770084 154.88620073 73.61345806 162.87695312 80.2578125 C164.37143621 81.48419604 165.8822099 82.69086137 167.40429688 83.8828125 C175.18172742 90.04258355 182.1666657 96.86070561 189.15283203 103.89208984 C191.1218315 105.87181424 193.10130727 107.84060754 195.08203125 109.80859375 C202.18270376 116.90186879 208.79709204 124.10011832 215 132 C215.86266333 133.02815871 216.73107261 134.0515746 217.609375 135.06640625 C246.72154782 169.01289974 268.22367255 209.98842305 283 252 C283.54650081 253.5066462 284.09334756 255.01316698 284.640625 256.51953125 C315.8777028 344.32404391 309.81693789 445.32238684 267.02832031 544.78393555 C252.2682981 575.50382415 233.48740407 604.3739599 211 630 C210.39027344 630.70898438 209.78054688 631.41796875 209.15234375 632.1484375 C197.90609757 645.17600399 186.14331899 657.86276654 173 669 C171.98590881 669.8881022 170.9729921 670.7775464 169.9609375 671.66796875 C113.36160339 721.22815413 42.2412608 752.30210266 -32 763 C-33.02754395 763.15098145 -34.05508789 763.30196289 -35.11376953 763.45751953 C-52.52499479 765.89451271 -69.82075102 766.2883451 -87.375 766.3125 C-88.93850693 766.31787781 -88.93850693 766.31787781 -90.53359985 766.32336426 C-110.79701985 766.36086141 -130.95516409 765.25614671 -150.9375 761.75 C-152.19272461 761.53384033 -153.44794922 761.31768066 -154.74121094 761.0949707 C-191.84082915 754.52026581 -227.66142319 742.84937579 -261.51171875 726.2890625 C-262.26114746 725.92458008 -263.01057617 725.56009766 -263.78271484 725.18457031 C-266 724 -266 724 -268.18994141 722.49511719 C-271.27881408 720.4331322 -273.59382385 718.90663854 -277.38647461 719.15844727 C-280.3331371 719.94072968 -283.13803501 720.94816302 -286 722 C-288.01852949 722.6450281 -290.04412258 723.26413777 -292.07067871 723.88345337 C-295.17468193 724.83570001 -298.26796289 725.82085035 -301.36230469 726.80395508 C-303.67571756 727.53890128 -305.99008843 728.2707525 -308.3046875 729.00195312 C-315.89016408 731.40239216 -323.46811342 733.8251731 -331.03735352 736.27636719 C-344.40029953 740.60363939 -357.77264815 744.893826 -371.18359375 749.0703125 C-371.85266628 749.27872458 -372.52173882 749.48713665 -373.21108627 749.70186424 C-379.32253894 751.60490594 -385.4353199 753.50366527 -391.54858398 755.40087891 C-405.84847895 759.83998526 -420.12785416 764.31937094 -434.32044983 769.09353638 C-444.44285116 772.49747089 -454.60721489 775.7663135 -464.78125 779.01220703 C-467.95156167 780.02444512 -471.12031157 781.04148172 -474.2890625 782.05859375 C-476.3150124 782.70601639 -478.34105048 783.3531632 -480.3671875 784 C-481.78087112 784.45451538 -481.78087112 784.45451538 -483.22311401 784.91821289 C-484.08647369 785.19270264 -484.94983337 785.46719238 -485.83935547 785.75 C-486.59747528 785.99234375 -487.35559509 786.2346875 -488.13668823 786.484375 C-490 787 -490 787 -492 787 C-489.95896896 780.05637718 -487.77339969 773.17283638 -485.48046875 766.30859375 C-484.97873138 764.80133476 -484.97873138 764.80133476 -484.46685791 763.2636261 C-483.37553984 759.98764696 -482.28171435 756.7125128 -481.1875 753.4375 C-480.8070755 752.29744507 -480.426651 751.15739014 -480.03469849 749.98278809 C-474.9576811 734.77068545 -469.83528995 719.57513465 -464.63348389 704.40527344 C-460.45217561 692.21126316 -456.30529422 680.00591739 -452.1796875 667.79296875 C-451.92020136 667.02487255 -451.66071522 666.25677635 -451.39336586 665.46540451 C-448.77213235 657.70582889 -446.15232583 649.94577281 -443.53482151 642.18493843 C-442.7911149 639.98044023 -442.04682323 637.77614022 -441.30244446 635.5718689 C-440.32688617 632.68285398 -439.35396578 629.79296911 -438.38273621 626.90249634 C-435.91065838 619.55900178 -433.38537151 612.23879868 -430.77880859 604.94189453 C-430.00185098 602.74909277 -429.22603688 600.55588989 -428.45059776 598.36255074 C-427.955796 596.97395591 -427.45543256 595.58732839 -426.94910622 594.20289421 C-426.25024001 592.2919563 -425.57134252 590.37375139 -424.89331055 588.45532227 C-424.3069709 586.83292381 -424.3069709 586.83292381 -423.70878601 585.17774963 C-422.26631919 578.71063777 -424.15335491 574.10977945 -427.5 568.625 C-428.23510837 567.38401597 -428.9680971 566.14177447 -429.69921875 564.8984375 C-430.07997559 564.25616211 -430.46073242 563.61388672 -430.85302734 562.95214844 C-455.9914651 520.16650598 -471.54436654 468.32567019 -476 419 C-476.08685059 418.04826904 -476.17370117 417.09653809 -476.26318359 416.1159668 C-478.69218091 385.32177548 -479.17092967 352.50479814 -474 322 C-473.79600586 320.77490723 -473.59201172 319.54981445 -473.38183594 318.28759766 C-462.2549248 253.20245588 -436.33028459 191.71477821 -395 140 C-394.24074219 139.04738281 -393.48148437 138.09476563 -392.69921875 137.11328125 C-388.36450456 131.74542274 -383.87972479 126.54659585 -379.23046875 121.44921875 C-377.78261105 119.85936449 -376.34689357 118.25833677 -374.92578125 116.64453125 C-365.94614302 106.46982102 -356.37735099 96.75175502 -346 88 C-345.03449219 87.14535156 -344.06898438 86.29070312 -343.07421875 85.41015625 C-269.15826848 20.24236836 -172.07177885 -10.59557761 0 0 Z " fill="#00A537" transform="translate(679,196)"/>
<path d="M0 0 C0.83772949 0.1757959 1.67545898 0.3515918 2.53857422 0.53271484 C49.46785386 10.5308998 95.80941356 31.54444792 135 59 C136.61648438 60.11375 136.61648438 60.11375 138.265625 61.25 C146.79790069 67.18770084 154.88620073 73.61345806 162.87695312 80.2578125 C164.37143621 81.48419604 165.8822099 82.69086137 167.40429688 83.8828125 C175.18172742 90.04258355 182.1666657 96.86070561 189.15283203 103.89208984 C191.1218315 105.87181424 193.10130727 107.84060754 195.08203125 109.80859375 C202.18270376 116.90186879 208.79709204 124.10011832 215 132 C215.86266333 133.02815871 216.73107261 134.0515746 217.609375 135.06640625 C246.72154782 169.01289974 268.22367255 209.98842305 283 252 C283.54650081 253.5066462 284.09334756 255.01316698 284.640625 256.51953125 C315.8777028 344.32404391 309.81693789 445.32238684 267.02832031 544.78393555 C252.2682981 575.50382415 233.48740407 604.3739599 211 630 C210.39027344 630.70898438 209.78054688 631.41796875 209.15234375 632.1484375 C197.90609757 645.17600399 186.14331899 657.86276654 173 669 C171.98590881 669.8881022 170.9729921 670.7775464 169.9609375 671.66796875 C113.36160339 721.22815413 42.2412608 752.30210266 -32 763 C-33.02754395 763.15098145 -34.05508789 763.30196289 -35.11376953 763.45751953 C-52.52499479 765.89451271 -69.82075102 766.2883451 -87.375 766.3125 C-88.93850693 766.31787781 -88.93850693 766.31787781 -90.53359985 766.32336426 C-110.79701985 766.36086141 -130.95516409 765.25614671 -150.9375 761.75 C-152.19272461 761.53384033 -153.44794922 761.31768066 -154.74121094 761.0949707 C-191.84082915 754.52026581 -227.66142319 742.84937579 -261.51171875 726.2890625 C-262.26114746 725.92458008 -263.01057617 725.56009766 -263.78271484 725.18457031 C-266 724 -266 724 -268.18994141 722.49511719 C-271.27881408 720.4331322 -273.59382385 718.90663854 -277.38647461 719.15844727 C-280.3331371 719.94072968 -283.13803501 720.94816302 -286 722 C-288.01852949 722.6450281 -290.04412258 723.26413777 -292.07067871 723.88345337 C-295.17468193 724.83570001 -298.26796289 725.82085035 -301.36230469 726.80395508 C-303.67571756 727.53890128 -305.99008843 728.2707525 -308.3046875 729.00195312 C-315.89016408 731.40239216 -323.46811342 733.8251731 -331.03735352 736.27636719 C-344.40029953 740.60363939 -357.77264815 744.893826 -371.18359375 749.0703125 C-371.85266628 749.27872458 -372.52173882 749.48713665 -373.21108627 749.70186424 C-379.32253894 751.60490594 -385.4353199 753.50366527 -391.54858398 755.40087891 C-405.84847895 759.83998526 -420.12785416 764.31937094 -434.32044983 769.09353638 C-444.44285116 772.49747089 -454.60721489 775.7663135 -464.78125 779.01220703 C-467.95156167 780.02444512 -471.12031157 781.04148172 -474.2890625 782.05859375 C-476.3150124 782.70601639 -478.34105048 783.3531632 -480.3671875 784 C-481.78087112 784.45451538 -481.78087112 784.45451538 -483.22311401 784.91821289 C-484.08647369 785.19270264 -484.94983337 785.46719238 -485.83935547 785.75 C-486.59747528 785.99234375 -487.35559509 786.2346875 -488.13668823 786.484375 C-490 787 -490 787 -492 787 C-489.95896896 780.05637718 -487.77339969 773.17283638 -485.48046875 766.30859375 C-484.97873138 764.80133476 -484.97873138 764.80133476 -484.46685791 763.2636261 C-483.37553984 759.98764696 -482.28171435 756.7125128 -481.1875 753.4375 C-480.8070755 752.29744507 -480.426651 751.15739014 -480.03469849 749.98278809 C-474.9576811 734.77068545 -469.83528995 719.57513465 -464.63348389 704.40527344 C-460.45217561 692.21126316 -456.30529422 680.00591739 -452.1796875 667.79296875 C-451.92020136 667.02487255 -451.66071522 666.25677635 -451.39336586 665.46540451 C-448.77213235 657.70582889 -446.15232583 649.94577281 -443.53482151 642.18493843 C-442.7911149 639.98044023 -442.04682323 637.77614022 -441.30244446 635.5718689 C-440.32688617 632.68285398 -439.35396578 629.79296911 -438.38273621 626.90249634 C-435.91065838 619.55900178 -433.38537151 612.23879868 -430.77880859 604.94189453 C-430.00185098 602.74909277 -429.22603688 600.55588989 -428.45059776 598.36255074 C-427.955796 596.97395591 -427.45543256 595.58732839 -426.94910622 594.20289421 C-426.25024001 592.2919563 -425.57134252 590.37375139 -424.89331055 588.45532227 C-424.3069709 586.83292381 -424.3069709 586.83292381 -423.70878601 585.17774963 C-422.26631919 578.71063777 -424.15335491 574.10977945 -427.5 568.625 C-428.23510837 567.38401597 -428.9680971 566.14177447 -429.69921875 564.8984375 C-430.07997559 564.25616211 -430.46073242 563.61388672 -430.85302734 562.95214844 C-455.9914651 520.16650598 -471.54436654 468.32567019 -476 419 C-476.08685059 418.04826904 -476.17370117 417.09653809 -476.26318359 416.1159668 C-478.69218091 385.32177548 -479.17092967 352.50479814 -474 322 C-473.79600586 320.77490723 -473.59201172 319.54981445 -473.38183594 318.28759766 C-462.2549248 253.20245588 -436.33028459 191.71477821 -395 140 C-394.24074219 139.04738281 -393.48148437 138.09476563 -392.69921875 137.11328125 C-388.36450456 131.74542274 -383.87972479 126.54659585 -379.23046875 121.44921875 C-377.78261105 119.85936449 -376.34689357 118.25833677 -374.92578125 116.64453125 C-365.94614302 106.46982102 -356.37735099 96.75175502 -346 88 C-345.03449219 87.14535156 -344.06898438 86.29070312 -343.07421875 85.41015625 C-269.15826848 20.24236836 -172.07177885 -10.59557761 0 0 Z M-239 90 C-239.77891602 90.41217773 -240.55783203 90.82435547 -241.36035156 91.24902344 C-252.67124995 97.24384337 -263.56400464 103.58204416 -274 111 C-274.7410498 111.52464844 -275.48209961 112.04929687 -276.24560547 112.58984375 C-287.35226802 120.49806145 -297.92180759 128.81758888 -308 138 C-308.67724121 138.61552734 -309.35448242 139.23105469 -310.05224609 139.86523438 C-318.12023675 147.23125585 -325.89441588 154.68684792 -333 163 C-333.90366704 164.0193661 -334.80870279 165.0375199 -335.71484375 166.0546875 C-392.52722867 230.35235996 -418.56311489 313.98143578 -415 399 C-414.50891176 406.73388665 -413.59093813 414.38404958 -412.43994141 422.04541016 C-412.0109699 424.92632758 -411.63345365 427.81043552 -411.26171875 430.69921875 C-407.551899 457.58966561 -399.06170931 484.27691798 -388 509 C-387.53335938 510.04333496 -387.06671875 511.08666992 -386.5859375 512.16162109 C-379.37620123 528.07749945 -371.56075018 544.06968378 -360.98828125 558.06640625 C-360.51600098 558.69393799 -360.0437207 559.32146973 -359.55712891 559.96801758 C-358.67984275 561.10942786 -357.7812929 562.23498891 -356.85693359 563.33862305 C-354.6145045 566.20681418 -353.98954618 567.74520414 -354.13989258 571.40966797 C-355.04717996 577.34262949 -357.13699751 582.93330483 -359.09375 588.5859375 C-359.72250786 590.4322023 -359.72250786 590.4322023 -360.3639679 592.31576538 C-361.26555542 594.96300484 -362.1719152 597.60854078 -363.08218384 600.25280762 C-364.51001438 604.40061724 -365.92702873 608.55207085 -367.3425293 612.70410156 C-369.27386084 618.36579066 -371.20979825 624.02588144 -373.14990234 629.68457031 C-377.00991375 640.94315946 -380.85602081 652.20646734 -384.69433594 663.47247314 C-385.7996601 666.71236408 -386.9093203 669.95074571 -388.01953125 673.18896484 C-388.68632778 675.14155722 -389.35300198 677.09419138 -390.01953125 679.046875 C-390.32474197 679.93345795 -390.6299527 680.82004089 -390.94441223 681.73348999 C-391.21774887 682.53654572 -391.49108551 683.33960144 -391.77270508 684.16699219 C-392.13069939 685.21219025 -392.13069939 685.21219025 -392.4959259 686.27850342 C-393.09367082 688.0209383 -393.09367082 688.0209383 -393 690 C-385.26928478 688.44537247 -377.87150843 686.15693906 -370.37109375 683.73828125 C-369.03416235 683.31036 -367.69710781 682.88282332 -366.35993958 682.4556427 C-363.52213708 681.5484203 -360.68506149 680.63897266 -357.84851074 679.72784424 C-353.41031152 678.30277326 -348.96959642 676.8856631 -344.52832031 675.47021484 C-333.11547481 671.83201169 -321.70322264 668.19202193 -310.29931641 664.52587891 C-304.64803185 662.70917971 -298.99320775 660.90400455 -293.3352356 659.10824585 C-291.28881864 658.45606519 -289.24393017 657.79906765 -287.20065308 657.13711548 C-284.39264982 656.22781334 -281.57999646 655.33467202 -278.765625 654.4453125 C-277.95615921 654.17870316 -277.14669342 653.91209381 -276.31269836 653.6374054 C-271.15227315 652.03153093 -267.20559075 651.4848266 -262.11987305 653.88867188 C-261.32383667 654.42331055 -261.32383667 654.42331055 -260.51171875 654.96875 C-259.59084473 655.57082275 -259.59084473 655.57082275 -258.65136719 656.18505859 C-258.00329102 656.61898926 -257.35521484 657.05291992 -256.6875 657.5 C-223.26947224 678.98740774 -184.71357354 692.69454474 -145.75 699.8125 C-144.70030029 700.007229 -143.65060059 700.20195801 -142.5690918 700.40258789 C-124.25994364 703.56529235 -105.79841298 704.4147536 -87.25 704.375 C-85.73045212 704.37368576 -85.73045212 704.37368576 -84.1802063 704.37234497 C-54.91522599 704.28960355 -27.28728086 700.54697649 1 693 C2.40161377 692.63285889 2.40161377 692.63285889 3.83154297 692.25830078 C59.22558359 677.52882892 118.25818733 643.65769704 155.35546875 598.953125 C157.36023174 596.57217133 159.49485872 594.33193281 161.625 592.0625 C216.69459271 531.41939867 245.41819095 446.62130506 241.73828125 365.16015625 C240.27595256 338.95765102 236.60300852 313.18634147 229 288 C228.56131592 286.5456958 228.56131592 286.5456958 228.11376953 285.06201172 C223.45823911 269.9025794 217.69115154 255.37091493 211 241 C210.60055176 240.13922852 210.20110352 239.27845703 209.78955078 238.39160156 C197.21724555 211.59883965 180.37111275 186.24431498 160.265625 164.4765625 C158.37880336 162.41407126 156.54559182 160.32211842 154.71875 158.20703125 C151.04742651 154.00198249 147.1988537 150.00654506 143.25 146.0625 C142.5497168 145.36302246 141.84943359 144.66354492 141.12792969 143.94287109 C136.47943887 139.34877978 131.74446907 135.07942938 126.59765625 131.046875 C124.8413868 129.66298749 123.11999559 128.233847 121.43359375 126.765625 C106.14016818 113.45186049 88.70494392 102.77566391 71 93 C70.31196289 92.61150879 69.62392578 92.22301758 68.91503906 91.82275391 C33.11193155 71.61576218 -7.35592198 59.93870272 -48 55 C-48.70108887 54.91279694 -49.40217773 54.82559387 -50.12451172 54.73574829 C-62.06674974 53.27210301 -73.84642576 52.6297544 -85.875 52.6875 C-86.7158313 52.68998749 -87.5566626 52.69247498 -88.42297363 52.69503784 C-140.741585 52.93204384 -192.78812201 65.13733828 -239 90 Z " fill="#FDFEFE" transform="translate(679,196)"/>
<path d="M0 0 C8.72661104 8.72661104 12.69694618 21.84815315 17.17907715 33.12200928 C18.80258244 37.20339976 20.44368071 41.2776877 22.0859375 45.3515625 C22.41452759 46.16706573 22.74311768 46.98256897 23.08166504 47.82278442 C27.10520847 57.77833178 31.34523098 67.63767968 35.609375 77.4921875 C36.02509766 78.45995117 36.44082031 79.42771484 36.86914062 80.42480469 C37.54751845 81.96960808 38.24773235 83.5054815 38.99023438 85.02050781 C41.36934245 89.95341371 41.99255583 94.66931008 40.43164062 99.90722656 C39.63561363 101.87887698 38.73479112 103.74061959 37.75 105.625 C37.3986499 106.31158691 37.0472998 106.99817383 36.68530273 107.70556641 C32.54380879 115.40083213 26.91686271 121.63784559 21 128 C19.28526529 129.89013967 17.58087429 131.78933714 15.875 133.6875 C14.81925781 134.83798828 14.81925781 134.83798828 13.7421875 136.01171875 C10.30111648 139.93886034 9.41931469 142.35437111 9.57421875 147.43359375 C14.2081129 175.36449701 52.662485 210.53483095 74 227 C74.56493164 227.44666016 75.12986328 227.89332031 75.71191406 228.35351562 C90.58667136 240.10385838 106.69508353 249.91682962 123.84863281 257.98193359 C125.39481954 258.71361751 126.93519794 259.45762254 128.47167969 260.20947266 C131.09674149 261.4935662 133.73386909 262.74933818 136.375 264 C137.18324219 264.39856201 137.99148438 264.79712402 138.82421875 265.20776367 C144.47112227 267.82153601 149.77105343 269.11006873 156 268 C159.24879902 266.12272365 161.49915439 263.78716782 164 261 C164.66104736 260.26740967 164.66104736 260.26740967 165.33544922 259.52001953 C173.7265845 250.15138661 181.44796816 240.23415301 189.1015625 230.26171875 C189.70742188 229.47410156 190.31328125 228.68648437 190.9375 227.875 C191.44152344 227.21242188 191.94554687 226.54984375 192.46484375 225.8671875 C197.04491161 220.29651972 197.04491161 220.29651972 200.27734375 219.29296875 C211.55845871 218.84569988 221.0993588 224.23305894 231 229 C231.7394989 229.35586182 232.4789978 229.71172363 233.24090576 230.07836914 C241.11365405 233.87279979 248.97419303 237.69210894 256.81518555 241.55175781 C258.08180275 242.17513031 258.08180275 242.17513031 259.37400818 242.81109619 C261.06244079 243.64293313 262.75024053 244.47605592 264.43739319 245.31048584 C268.68575321 247.40418151 272.9486754 249.44991769 277.25683594 251.41796875 C278.53607437 252.0066272 278.53607437 252.0066272 279.84115601 252.60717773 C281.44491928 253.34183782 283.05289793 254.06740118 284.66592407 254.78149414 C290.07778653 257.26735716 296.23434094 260.46868188 299 266 C300.13220085 284.87879094 296.99509315 307.71763749 284.33349609 322.50585938 C264.59357739 344.5173532 237.02809201 354.96311854 208.265625 358.453125 C148.98044324 360.60336475 75.66969661 318.4411969 32 282 C31.04738281 281.23429687 30.09476563 280.46859375 29.11328125 279.6796875 C20.4124083 272.57226047 12.49806555 264.68639342 4.5625 256.75 C3.99433563 256.182742 3.42617126 255.61548401 2.84078979 255.03103638 C-3.3192822 248.86985244 -9.40065529 242.68317517 -15 236 C-15.54374268 235.35772461 -16.08748535 234.71544922 -16.64770508 234.05371094 C-27.79538179 220.81351125 -38.2922395 207.17384111 -48.0012207 192.84375 C-50.09839208 189.74945148 -52.21049792 186.68247851 -54.453125 183.69140625 C-79.36188959 150.38930719 -94.71461974 110.38099502 -89.5390625 68.390625 C-85.2467773 44.85880259 -72.02540714 19.87856698 -52.72265625 5.27734375 C-39.41443907 -2.5920722 -13.11083457 -10.30002255 0 0 Z " fill="#FEFEFE" transform="translate(492,400)"/>
</svg>
